<svg width="30" height="30" viewBox="0 0 30 30" fill="none" xmlns="http://www.w3.org/2000/svg">
<path d="M21.2523 6.40455L21.1728 10.6689C21.1614 11.254 21.5363 12.0304 22.0134 12.3792L24.8303 14.4945C26.6364 15.8447 26.341 17.4987 24.1829 18.1738L20.5141 19.3102C19.9007 19.5015 19.2532 20.1653 19.0942 20.7842L18.2196 24.0921C17.5267 26.7025 15.8002 26.9613 14.369 24.666L12.3698 21.4593C12.0064 20.8742 11.1431 20.4354 10.4616 20.4691L6.66783 20.6604C3.95311 20.7954 3.1807 19.2427 4.95266 17.1949L7.20165 14.607C7.62192 14.1232 7.81501 13.223 7.62192 12.6155L6.47475 8.98116C5.80459 6.84334 7.00859 5.66193 9.15538 6.35954L12.5062 7.45095C13.0741 7.63098 13.926 7.5072 14.4031 7.1584L17.9016 4.66052C19.7871 3.31032 21.2978 4.09796 21.2523 6.40455Z" stroke="white" stroke-width="1.5" stroke-linecap="round" stroke-linejoin="round"/>
<path d="M26.5001 26.5001L23.0585 23.0908" stroke="white" stroke-width="1.5" stroke-linecap="round" stroke-linejoin="round"/>
</svg>
