<svg width="120" height="120" viewBox="0 0 120 120" fill="none" xmlns="http://www.w3.org/2000/svg">
<path d="M67.9111 49.4105C67.8644 50.129 67.8144 50.8508 67.7645 51.5693L68.1244 51.7275C68.3728 51.4485 68.5844 51.1395 68.7544 50.808C70.8409 44.9478 74.8939 41.2893 81.0634 39.961C86.8897 38.7086 93.4792 41.2794 96.9389 46.1937C95.3957 47.0374 93.8325 47.8416 92.3126 48.7381C91.5827 49.16 90.9294 49.7104 90.2427 50.2015L89.5061 49.5423C88.5185 48.6384 87.3154 47.9965 86.0091 47.6765C84.7027 47.3566 83.3358 47.3689 82.0356 47.7125C80.7354 48.056 79.5444 48.7196 78.5736 49.6412C77.6028 50.5629 76.8839 51.7127 76.4838 52.9833C76.1238 54.0973 76.1305 54.9609 77.3104 55.5673C77.6937 55.7684 77.977 56.1837 78.2903 56.5001C76.2905 57.7064 74.3106 58.8962 72.3474 60.1256C72.0244 60.3943 71.7406 60.706 71.5042 61.0518C65.4746 57.4691 58.5718 60.4915 56.6319 66.0649C56.3433 66.7911 55.8405 67.4147 55.1887 67.8546C54.3459 68.3822 53.6264 69.0813 53.0781 69.9053C52.5298 70.7294 52.1653 71.6595 52.009 72.6337C50.6957 73.3127 49.3925 74.0048 48.0693 74.6607C46.8993 75.2408 45.7128 75.7813 44.5329 76.3416C43.5129 73.0127 43.8662 69.6871 45.6728 66.8559C47.8759 63.4281 50.6191 60.3431 53.1289 57.1098C53.1522 57.0802 53.2022 57.0703 53.2389 57.0538C53.7576 56.9378 54.2634 56.771 54.7487 56.5561C57.3952 55.096 60.005 53.57 62.6548 52.1165C64.378 51.1771 66.1546 50.3136 67.9111 49.4105Z" fill="white"/>
<path d="M44.5224 76.3525C45.7023 75.7922 46.8889 75.2516 48.0588 74.6715C49.392 74.0124 50.6852 73.3235 51.9985 72.6445C51.9352 76.748 55.1516 79.2364 58.8146 79.1112C63.291 78.953 67.774 79.1112 72.2536 79.1112C72.0256 79.424 71.7566 79.7055 71.4537 79.9483C67.9873 81.972 64.5009 83.9628 61.0378 85.9964C60.7045 86.1909 60.5145 86.6226 60.2545 86.9423C57.9214 87.0841 55.5882 87.0346 53.3784 86.148C52.4418 85.7723 52.0085 86.1085 51.4285 86.8072C47.5555 91.4775 43.6025 96.0853 39.7161 100.742C37.3829 103.534 34.5331 103.409 32.3466 100.802C29.0869 96.9126 25.7638 93.0728 22.4707 89.2132C22.8773 89.032 23.294 88.8837 23.6873 88.6595C25.6305 87.6114 27.567 86.5501 29.5068 85.4954L35.893 92.997C36.057 92.9041 36.2102 92.7935 36.3497 92.6674C39.4728 88.8276 42.6059 84.9944 45.6823 81.1316C45.9223 80.8251 45.8556 80.1428 45.7256 79.711C45.3856 78.5608 44.929 77.4632 44.5224 76.3525Z" fill="white"/>
<path d="M60.2549 86.942C60.5149 86.6124 60.7048 86.1905 61.0381 85.9961C64.5012 83.9625 67.9876 81.9717 71.454 79.948C71.7578 79.7048 72.0269 79.4221 72.254 79.1076C75.4937 79.1076 78.7368 79.1669 81.9733 79.0252C83.1629 78.9634 84.3209 78.6246 85.353 78.0364C87.9628 76.5202 89.0894 72.8552 86.8762 69.4669C89.566 67.9508 92.2425 66.4116 94.9523 64.935C95.7226 64.5732 96.5166 64.2627 97.3288 64.0056C96.7222 64.7834 96.1922 65.637 95.4889 66.3127C94.7856 66.9884 94.679 67.4861 95.0323 68.3529C95.8133 70.1552 96.1634 72.1114 96.0553 74.0693C95.9472 76.0271 95.3838 77.934 94.409 79.6415C91.8392 84.3118 87.7428 86.8563 82.3632 86.9354C74.9938 87.064 67.6243 86.9552 60.2549 86.942Z" fill="white"/>
<path d="M97.3279 64.0161C96.5157 64.2733 95.7218 64.5838 94.9514 64.9456C92.2416 66.4222 89.5651 67.9614 86.8753 69.4775C86.1784 68.6841 85.3021 68.0644 84.3176 67.6687C83.3331 67.273 82.2681 67.1124 81.2091 67.2C80.4225 67.2494 79.6292 67.2 78.8426 67.2C77.1028 67.2264 75.9395 66.4255 74.9496 65.0082C73.9597 63.5909 72.6564 62.3714 71.4932 61.0531C71.7296 60.7073 72.0134 60.3956 72.3364 60.1269C74.2996 58.8909 76.2928 57.7011 78.2793 56.5014C78.916 57.1606 79.6392 57.7307 80.1659 58.4526C80.6391 59.1117 81.1658 59.2238 81.9257 59.3326C83.8121 59.5478 85.675 59.9305 87.492 60.4763C89.6585 61.1882 89.8251 61.2607 90.9884 59.237C91.3097 58.6621 91.5603 58.0513 91.735 57.4176C92.4916 54.7809 91.795 52.3913 90.2317 50.2028C90.9184 49.7117 91.565 49.1613 92.3016 48.7394C93.8215 47.8561 95.3847 47.0387 96.9279 46.1949C100.888 51.2311 101.064 59.181 97.3279 64.0161Z" fill="white"/>
<path d="M4.09277 45.4492C4.32942 41.3491 5.26601 37.4335 7.21253 33.7816C7.79916 33.6761 8.46578 33.7124 8.95241 33.452C12.9954 31.1811 16.9985 28.8377 21.0248 26.5305C26.6344 23.3302 32.2607 20.1529 37.8636 16.9426C38.2235 16.735 38.4602 16.3197 38.7568 16C42.3732 16.0692 45.7296 17.1272 48.9794 18.6137C49.3127 18.7653 49.646 18.8905 49.9793 19.0323C49.7427 19.3421 49.576 19.764 49.2627 19.9485C47.5962 20.9373 45.9063 21.8371 44.2631 22.8391C43.5509 23.3276 42.8718 23.8616 42.2299 24.4376C41.5633 24.319 40.9267 24.197 40.2734 24.0882C32.6306 22.8259 25.8745 24.7211 20.0249 29.7177C16.4685 32.7566 14.2354 36.6392 12.7855 41.0162C11.6555 41.5798 10.5189 42.1335 9.3957 42.707C7.64583 43.6134 5.87597 44.5462 4.09277 45.4492Z" fill="white"/>
<path d="M38.7552 16C38.4586 16.3296 38.2219 16.735 37.862 16.9426C32.2591 20.1529 26.6328 23.3302 21.0232 26.5305C16.9969 28.8377 12.9938 31.1679 8.95082 33.452C8.46419 33.7256 7.79756 33.6893 7.21094 33.7816C9.4541 28.696 13.0938 24.7672 17.5902 21.5668C21.2232 18.9795 25.2563 17.1437 29.6526 16.4581C32.649 15.9967 35.7288 16.1318 38.7552 16Z" fill="white"/>
<path d="M29.5063 85.4984C27.5665 86.5531 25.6299 87.6144 23.6867 88.6625C23.2934 88.8735 22.8768 89.035 22.4702 89.2163L14.7041 78.1089C15.1407 77.8815 15.584 77.6673 16.0173 77.43C17.8739 76.4082 19.7304 75.3766 21.5836 74.3516C24.2234 78.0672 26.8643 81.7828 29.5063 85.4984Z" fill="white"/>
<path d="M67.9098 49.4112C66.1532 50.3143 64.3767 51.1778 62.6435 52.127C59.9937 53.5805 57.3839 55.0934 54.7374 56.5666C54.252 56.7816 53.7463 56.9483 53.2275 57.0643C54.8408 55.8679 56.364 54.5232 58.0972 53.5377C59.0738 52.984 59.6237 52.4401 59.7037 51.3755C59.7904 50.2351 60.037 49.0684 59.967 47.9544C59.8004 45.6472 59.4637 43.34 59.1971 41.0329C59.6613 40.8796 60.1155 40.698 60.557 40.4891C62.4602 39.4475 64.35 38.3764 66.2432 37.3184C67.693 41.1786 68.2621 45.308 67.9098 49.4112V49.4112Z" fill="white"/>
<path d="M42.2559 24.4425C42.8977 23.8664 43.5769 23.3325 44.289 22.8439C45.9322 21.8551 47.6221 20.9455 49.2887 19.9534C49.602 19.7688 49.7686 19.3469 50.0053 19.0371C53.8739 20.7964 57.2916 23.3954 60.0045 26.6409C58.748 27.4747 57.4814 28.2888 56.2348 29.1491C55.3049 29.7852 54.405 30.4674 53.4884 31.1266C50.3724 27.9997 46.509 25.7007 42.2559 24.4425V24.4425Z" fill="white"/>
<path d="M4.09182 45.4506C5.86503 44.5343 7.63489 43.6148 9.42476 42.7084C10.548 42.1349 11.6846 41.5812 12.8145 41.0176C11.7346 45.2726 11.8479 49.5442 12.6412 53.8256C11.7213 54.2508 10.798 54.6628 9.88473 55.0979C8.35151 55.8328 6.82829 56.5777 5.2984 57.3193C4.3718 53.4136 3.75852 49.4914 4.09182 45.4506Z" fill="white"/>
<path d="M53.5049 31.1088C54.4215 30.4496 55.3214 29.7905 56.2513 29.1313C57.4979 28.2809 58.7645 27.4569 60.0211 26.623C62.89 29.6656 65.0184 33.3158 66.2439 37.2953C64.3507 38.3533 62.4609 39.4245 60.5577 40.466C60.1162 40.6749 59.662 40.8566 59.1978 41.0098C58.0307 37.3481 56.0902 33.9732 53.5049 31.1088V31.1088Z" fill="white"/>
<path d="M21.5834 74.3518C19.7303 75.3769 17.8737 76.4085 16.0172 77.4302C15.5839 77.6675 15.1406 77.8818 14.704 78.1092L9.23438 67.9808C9.88792 67.4921 10.5678 67.0388 11.2709 66.6228C12.8574 65.7824 14.484 65.0144 16.0939 64.2168L21.5834 74.3518Z" fill="white"/>
<path d="M16.0912 64.2163C14.4813 65.0139 12.8548 65.7819 11.2682 66.6224C10.5651 67.0383 9.88525 67.4916 9.2317 67.9803C7.99624 64.6997 6.76078 61.4192 5.52531 58.1386C5.42532 57.8716 5.36865 57.5915 5.29199 57.3179C6.82188 56.5763 8.3451 55.8314 9.87832 55.0964C10.7916 54.6614 11.7149 54.2494 12.6314 53.8242L16.0912 64.2163Z" fill="white"/>
<path d="M72.9764 38.573C72.0264 37.9864 70.7799 37.6007 70.1866 36.7636C69.0859 35.1737 68.1902 33.4542 67.5201 31.645C66.8201 29.7992 67.8734 27.8744 69.6766 27.0768C71.4798 26.2792 73.573 26.7769 74.6162 28.4578C75.5192 29.8883 76.2996 31.391 76.9494 32.9502C77.986 35.5045 75.9328 38.3028 73.1697 38.2698L72.9764 38.573Z" fill="white"/>
<path d="M109.194 52.623C110.247 52.6988 111.45 52.7483 112.643 52.8834C114.47 53.0878 115.996 54.861 116 56.7397C116 58.7667 114.523 60.5992 112.497 60.6948C110.674 60.7851 108.847 60.6901 107.044 60.4113C105.101 60.1147 103.821 58.1042 104.007 56.0673C104.174 54.2743 105.894 52.7054 107.804 52.6164C108.217 52.6066 108.634 52.623 109.194 52.623Z" fill="white"/>
<path d="M108.704 74.1342C108.504 75.8118 107.774 77.0016 106.371 77.7201C105.037 78.409 103.567 78.4749 102.371 77.5224C100.906 76.3706 99.5442 75.0958 98.3012 73.7123C97.1013 72.3609 97.3712 70.2186 98.6678 68.8606C100.058 67.4038 102.141 67.0446 103.741 68.2377C105.159 69.3147 106.472 70.522 107.66 71.8435C108.197 72.4334 108.367 73.3596 108.704 74.1342Z" fill="white"/>
<path d="M94.2753 29.1806C93.9886 30.2979 93.6687 32.1305 93.0387 33.851C92.3721 35.6736 90.1623 36.5635 88.2857 36.0164C86.2859 35.433 85.1493 33.584 85.536 31.3691C85.7809 29.9546 86.1148 28.5566 86.5359 27.1833C86.8156 26.2441 87.4431 25.4436 88.2931 24.9415C89.1431 24.4394 90.1533 24.2724 91.1222 24.474C93.0287 24.8201 94.3086 26.445 94.2753 29.1806Z" fill="white"/>
<path d="M106.417 34.7012C108.17 34.8033 109.463 35.6603 110.113 37.239C110.763 38.8178 110.503 40.2845 109.24 41.3985C107.942 42.5466 106.552 43.5882 105.084 44.5132C103.507 45.502 101.244 44.9911 100.127 43.5969C98.9075 42.0808 98.8276 39.7967 100.214 38.5212C101.641 37.2794 103.157 36.1416 104.75 35.1165C105.187 34.8165 105.847 34.8297 106.417 34.7012Z" fill="white"/>
<path d="M49.7219 44.959C51.2851 52.4309 45.9455 59.8929 38.2394 61.063C34.1131 61.6925 30.4367 60.7795 27.2402 58.0966C27.4612 57.809 27.7189 57.5509 28.0068 57.3287C29.2434 56.5937 30.5333 55.9444 31.7566 55.1929C32.7198 54.6029 33.6164 53.9108 34.543 53.2648C38.4161 53.5944 40.1659 52.5364 41.8991 48.868C43.6357 47.9814 45.3689 47.0849 47.1121 46.2081C47.9687 45.7863 48.8486 45.3776 49.7219 44.959Z" fill="white"/>
<path d="M22.2472 49.4084C21.4806 45.7137 22.5172 42.398 24.617 39.4052C26.2487 37.0717 28.5828 35.3061 31.2874 34.3594C33.992 33.4127 36.9295 33.333 39.6825 34.1317C41.4457 34.6591 43.0156 35.8259 44.6822 36.6993C42.349 38.0177 39.9959 39.336 37.6827 40.6973C37.4027 40.8621 37.2461 41.2279 37.0161 41.5015C33.8097 41.2114 31.6531 42.6748 30.2799 45.4566C29.2467 45.9411 28.2034 46.4091 27.1801 46.9134C25.5236 47.7308 23.887 48.5746 22.2472 49.4084Z" fill="white"/>
<path d="M37.0068 41.5073C37.2202 41.2337 37.3768 40.8679 37.6735 40.7031C40.0066 39.3517 42.3398 38.0333 44.6729 36.7051C47.5194 38.7617 49.1093 41.5666 49.7259 44.9449C48.8526 45.3635 47.9727 45.7722 47.1061 46.2073C45.3629 47.084 43.6297 47.9805 41.8931 48.8671C41.8931 47.9772 42.0265 47.0543 41.8431 46.2007C41.2899 43.6266 39.4867 42.206 37.0068 41.5073Z" fill="white"/>
<path d="M22.2471 49.4063C23.8869 48.5724 25.5235 47.7287 27.17 46.908C28.1933 46.4037 29.2365 45.9357 30.2698 45.4512C29.6199 49.459 30.9964 51.987 34.5328 53.2757C33.6062 53.9349 32.7096 54.6139 31.7464 55.2039C30.5231 55.9553 29.2332 56.6046 27.9966 57.3396C27.7087 57.5618 27.451 57.82 27.23 58.1076C25.838 57.075 24.6769 55.769 23.8194 54.2717C22.9619 52.7743 22.4266 51.1179 22.2471 49.4063V49.4063Z" fill="white"/>
</svg>
