<svg width="27" height="28" viewBox="0 0 27 28" fill="none" xmlns="http://www.w3.org/2000/svg">
    <g filter="url(#a3deglvyya)" stroke="#444E72" stroke-linecap="round" stroke-linejoin="round">
        <path d="M15 18.76a6.76 6.76 0 1 0 0-13.52 6.76 6.76 0 0 0 0 13.52z" stroke-width="1.5"/>
        <path d="m22.426 19.426-.135-.135m0-14.581.135-.136-.135.136zM7.575 19.426l.135-.135-.136.135zM15 1.683V1.6v.083zM15 22.4v-.083.083zM4.683 12H4.6h.083zM25.4 12h-.083.083zM7.71 4.71l-.136-.136.136.136z" stroke-width="2"/>
    </g>
    <defs>
        <filter id="a3deglvyya" x=".6" y=".6" width="25.8" height="26.8" filterUnits="userSpaceOnUse" color-interpolation-filters="sRGB">
            <feFlood flood-opacity="0" result="BackgroundImageFix"/>
            <feColorMatrix in="SourceAlpha" values="0 0 0 0 0 0 0 0 0 0 0 0 0 0 0 0 0 0 127 0" result="hardAlpha"/>
            <feOffset dx="-2" dy="3"/>
            <feGaussianBlur stdDeviation=".5"/>
            <feColorMatrix values="0 0 0 0 0 0 0 0 0 0 0 0 0 0 0 0 0 0 0.1 0"/>
            <feBlend in2="BackgroundImageFix" result="effect1_dropShadow_9616_24649"/>
            <feBlend in="SourceGraphic" in2="effect1_dropShadow_9616_24649" result="shape"/>
        </filter>
    </defs>
</svg>
